<svg width="40" height="40" fill="none" xmlns="http://www.w3.org/2000/svg"><path fill-rule="evenodd" clip-rule="evenodd" d="M36.17 18H38c.37 0 .67-.3.67-.67V12c0-.37-.3-.67-.67-.67h-6.25l-1.08-2.15V6.67c0-.37-.3-.67-.67-.67h-4c-.37 0-.67.3-.67.67v2.66c0 .37.3.67.67.67h3.59l1.08 2.16V16a2 2 0 0 0-4 0v-1.33c0-.37-.3-.67-.67-.67h-5.25l-2.08-.52V2.67C18.67 1.19 17.47 0 16 0h-2.67a2.67 2.67 0 0 0-2.66 2.67V10H7.33a2 2 0 0 0-2 2v2H.67a.67.67 0 0 0-.47 1.14l1.52 1.53L.2 18.2a.67.67 0 0 0 .47 1.13h6.66a2 2 0 0 0 2-2v-2h1.34V22h-2a4.67 4.67 0 0 0-4.62 4H2c-.37 0-.67.3-.67.67v2.66c0 .37.3.67.67.67h2v1.33H.67c-.37 0-.67.3-.67.67v2.67c0 .36.3.66.67.66H8a4.67 4.67 0 1 0 9.33 0h12a4.67 4.67 0 1 0 9.34 0h.66a.67.67 0 0 0 .65-.81L36.18 18Zm-9.5-2a2 2 0 1 0 4 0v14h-2v-.67a2 2 0 0 0-2-2V20c0-.37-.3-.67-.67-.67h-7.33v-1.8l1.83.45.17.02H26c.37 0 .67-.3.67-.67V16Zm2.66-7.33h-2.66V7.33h2.66v1.34ZM4 34v-1.33H1.33V34H4Zm0-5.33H2.67v-1.34H4v1.34Zm33.33-16H36v4h1.33v-4Zm-5.33 0h2.67v4H32v-4Zm-4.67 16.66c0-.36-.3-.66-.66-.66H24V30h3.33v-.67ZM20.5 15.31c.06.02.11.02.17.02h4.66v1.34h-4.58L16 15.47V14.2l4.5 1.12ZM13.33 1.33c-.73 0-1.33.6-1.33 1.34v2.66h2V4c0-.37.3-.67.67-.67h2.66v-.66c0-.74-.6-1.34-1.33-1.34h-2.67ZM12 6.67h2.67c.36 0 .66-.3.66-.67V4.67h2v1.5L12 7.77v-1.1Zm5.33 4v-3.1L12 9.16v1.5h5.33Zm0 1.33v1.15l-1.83-.46a.67.67 0 0 0-.83.64V16c0 .3.2.57.5.65l2.16.54v2.14H12V12h5.33Zm8 15.33v-6.66H12V22h11.33c.37 0 .67.3.67.67v4.66h1.33ZM8 17.33c0 .37-.3.67-.67.67H2.28l.86-.86a.67.67 0 0 0 0-.94l-.86-.87H8v2ZM6.67 12v2h4v-2.67H7.33c-.36 0-.66.3-.66.67Zm6 26.67a3.34 3.34 0 0 1-3.34-3.34h1.34a2 2 0 1 0 4 0H16c0 1.84-1.5 3.33-3.33 3.34Zm0-2.67c.36 0 .66-.3.66-.67H12c0 .37.3.67.67.67Zm4.66-2H8v-6.67c0-.36.3-.66.67-.66h8c.36 0 .66.3.66.66V34Zm1.34 0H20v-7.33c0-1.84-1.5-3.33-3.33-3.34h-8a3.34 3.34 0 0 0-3.34 3.34V34h1.34v-6.67c0-1.1.9-2 2-2h8a2 2 0 0 1 2 2V34Zm1.26-10.67h2.74V30h-1.34v-3.33c0-1.26-.5-2.46-1.4-3.34ZM34 38.67a3.34 3.34 0 0 1-3.33-3.34H32a2 2 0 1 0 4 0h1.33c0 1.84-1.49 3.33-3.33 3.34ZM34 36c.37 0 .67-.3.67-.67h-1.34c0 .37.3.67.67.67Zm-2-2v-4.67h1.33V28H32V18h2.8l3.7 16H32Zm-10.67 0h9.34v-2.67h-9.34V34ZM36 28h-1.33v1.33H36V28ZM9.33 28h1.34v1.33H9.33V28Zm4 0H12v1.33h1.33V28Zm1.34 0H16v1.33h-1.33V28Zm14-12.67a.67.67 0 1 1 0 1.34.67.67 0 0 1 0-1.34ZM0 4.67h8.67V6H0V4.67Zm9.33 2.66h-8v1.34h8V7.33Z" fill="#495567"/></svg>