<svg width="39" height="48" fill="none" xmlns="http://www.w3.org/2000/svg"><path fill-rule="evenodd" clip-rule="evenodd" d="M24.8 0H4.01a4 4 0 0 0-4 4v39.98a4 4 0 0 0 4 4H24v-1.44c0-3.6 1.06-7.12 3.06-10.12a.8.8 0 0 0-.1-1l-5.6-5.6a2.6 2.6 0 0 1 .2-3.84 2.7 2.7 0 0 1 3.58.28l7.89 7.89 1.13-1.13-5.36-5.37V4a4 4 0 0 0-4-4Zm2.4 26.05-.93-.93a4.3 4.3 0 0 0-5.73-.37 4.2 4.2 0 0 0-.3 6.2l5.14 5.14a19.77 19.77 0 0 0-2.97 10.29H4a2.4 2.4 0 0 1-2.4-2.4v-2.4h20v-1.6h-20V6.4H27.2v19.65ZM1.6 4.8H27.2V4a2.4 2.4 0 0 0-2.4-2.4H4.01A2.4 2.4 0 0 0 1.61 4v.8Zm29.55 13.8-1.08 1.18 4.9 4.5a5.61 5.61 0 0 1 1.81 4.12v19.57h1.6V28.4c0-2.02-.85-3.94-2.33-5.3l-4.9-4.5ZM4.8 14.4h3.2c.88 0 1.6-.72 1.6-1.6V9.6C9.6 8.7 8.89 8 8 8H4.8c-.88 0-1.6.71-1.6 1.6v3.2c0 .88.72 1.6 1.6 1.6Zm0-4.8h3.2v3.2H4.8V9.6Zm11.2 4.8h-3.2a1.6 1.6 0 0 1-1.6-1.6V9.6c0-.89.71-1.6 1.6-1.6H16c.88 0 1.6.71 1.6 1.6v3.2c0 .88-.72 1.6-1.6 1.6Zm0-4.8h-3.2v3.2H16V9.6Zm4.8 4.8H24c.88 0 1.6-.72 1.6-1.6V9.6c0-.89-.72-1.6-1.6-1.6h-3.2c-.88 0-1.6.71-1.6 1.6v3.2c0 .88.72 1.6 1.6 1.6Zm0-4.8H24v3.2h-3.2V9.6ZM8 22.38H4.8a1.6 1.6 0 0 1-1.6-1.6v-3.2c0-.88.72-1.6 1.6-1.6h3.2c.88 0 1.6.72 1.6 1.6v3.2c0 .88-.72 1.6-1.6 1.6Zm0-4.8H4.8v3.2h3.2v-3.2ZM4.8 30.4h3.2c.88 0 1.6-.72 1.6-1.6v-3.2c0-.89-.72-1.6-1.6-1.6H4.8c-.88 0-1.6.71-1.6 1.6v3.2c0 .88.72 1.6 1.6 1.6Zm0-4.8h3.2v3.2H4.8v-3.2Zm11.2-3.2h-3.2a1.6 1.6 0 0 1-1.6-1.6v-3.2c0-.88.71-1.6 1.6-1.6H16c.88 0 1.6.72 1.6 1.6v3.2c0 .88-.72 1.6-1.6 1.6Zm0-4.8h-3.2v3.2H16v-3.2Zm4.8 4.8H24c.88 0 1.6-.72 1.6-1.6v-3.2c0-.88-.72-1.6-1.6-1.6h-3.2c-.88 0-1.6.72-1.6 1.6v3.2c0 .88.72 1.6 1.6 1.6Zm0-4.8H24v3.2h-3.2v-3.2ZM16 30.4h-3.2a1.6 1.6 0 0 1-1.6-1.6v-3.2c0-.89.71-1.6 1.6-1.6H16c.88 0 1.6.71 1.6 1.6v3.2c0 .88-.72 1.6-1.6 1.6Zm0-4.8h-3.2v3.2H16v-3.2ZM4.8 38.38h3.2c.88 0 1.6-.72 1.6-1.6v-3.2c0-.88-.72-1.6-1.6-1.6H4.8c-.88 0-1.6.72-1.6 1.6v3.2c0 .88.72 1.6 1.6 1.6Zm0-4.8h3.2v3.2H4.8v-3.2Zm11.2 4.8h-3.2a1.6 1.6 0 0 1-1.6-1.6v-3.2c0-.88.71-1.6 1.6-1.6H16c.88 0 1.6.72 1.6 1.6v3.2c0 .88-.72 1.6-1.6 1.6Zm0-4.8h-3.2v3.2H16v-3.2Zm-.8 9.6h-1.6v1.6h1.6v-1.6Z" fill="#495567"/></svg>