<svg width="43" height="32" fill="none" xmlns="http://www.w3.org/2000/svg"><path d="M18.07 30.3a.83.83 0 0 0-.83.83.83.83 0 0 0 .83.82.83.83 0 0 0 .83-.82.83.83 0 0 0-.83-.83Z" fill="#000"/><path fill-rule="evenodd" clip-rule="evenodd" d="m34.54 16.42-1.93-8.7c.52-.08.98-.34 1.3-.72.38.23.83.37 1.31.37h1.66c.46 0 .83-.37.83-.83v-3.3a.83.83 0 0 0-.83-.83h-1.66c-.5 0-.95.15-1.34.4-.38-.43-.93-.7-1.55-.7h-4.88c-.87 0-1.63.55-1.92 1.32h-1.96a2.15 2.15 0 0 0 0 4.3h4.25V9.4a.83.83 0 1 0 1.66 0V7.73h1.44L33 17.11l-3.93 7a2.43 2.43 0 0 1-2.11 1.23h-9.8a6.96 6.96 0 0 0-11.2-4.64 6.9 6.9 0 0 0-2.6 4.64h-1.7A10.96 10.96 0 0 1 12.6 14.6h5.87c.46 0 .84.37.84.84v7.42c0 .46.37.83.82.83h4.4a4.93 4.93 0 0 0 4.94-4.93v-2.74a.83.83 0 0 0-1.65 0v2.74a3.28 3.28 0 0 1-3.29 3.27h-3.57v-6.6c0-.42-.1-.82-.3-1.17a2.48 2.48 0 0 0-1.23-4.63h-3.02c-.29 0-.56.05-.82.15V2.52A2.48 2.48 0 0 0 13.1.04H7.77a7.78 7.78 0 0 0-7.71 6.8 7.8 7.8 0 0 0-.06.97v4.3c0 1.25.92 2.28 2.11 2.46l1.83 1.83A12.57 12.57 0 0 0 0 25.54v.63c0 .46.37.83.83.83h4.64a4.77 4.77 0 0 0 1.16 3.3H.83a.83.83 0 0 0 0 1.65h9.42A4.8 4.8 0 0 0 15.03 27h11.93c1.3 0 2.52-.63 3.28-1.66h1.05a4.8 4.8 0 0 0 .81 4.96H21.38a.83.83 0 0 0 0 1.65h14.35a4.8 4.8 0 0 0 4.43-6.61h1.35c.46 0 .83-.37.83-.83a8.11 8.11 0 0 0-7.8-8.1ZM16.4 11.29h3.02a.83.83 0 0 1 0 1.65h-3.02a.83.83 0 0 1 0-1.65ZM1.66 7.7a3 3 0 0 0 0 .1v4.3c0 .46.36.83.82.83h10.63c.45 0 .82-.37.82-.83V2.52a.83.83 0 0 0-.82-.82H7.77A6.13 6.13 0 0 0 1.93 6h8.78a.83.83 0 1 1 0 1.66H1.66v.05Zm2.82 6.88h1.89c-.4.23-.78.48-1.15.75l-.74-.75Zm5.8 15.71a3.15 3.15 0 0 0 3.12-3.14l.01-.16H7.1c.02.05.02.1.02.16 0 1.7 1.36 3.09 3.05 3.14h.13Zm-5.26-4.96c.2-1.31.9-2.5 1.96-3.33L7 22a5.3 5.3 0 0 1 8.5 3.34H5.01ZM36.05 4.06h-.83a.83.83 0 0 0 0 1.66h.83V4.06ZM23.07 5.58c0-.27.22-.5.5-.5h1.82v.59c0 .14.01.28.04.4h-1.86a.5.5 0 0 1-.5-.49Zm4.38.5h4.88c.23 0 .41-.19.41-.41v-1.5a.41.41 0 0 0-.4-.4h-4.89a.41.41 0 0 0-.4.4v1.5c0 .22.18.4.4.4Zm11.41 21.08c0 1.72-1.39 3.13-3.1 3.14h-.14a3.15 3.15 0 0 1-2.46-4.96h5.12c.38.53.58 1.16.58 1.82Zm-4.5-9.09-3.16 5.62h9.43a6.45 6.45 0 0 0-6.27-5.62Z" fill="#495567"/><path d="M28.65 13.53a.83.83 0 1 0 0-1.65.83.83 0 1 0 0 1.65Z" fill="#000"/></svg>